<svg width="21" height="12" viewBox="0 0 21 12" fill="none" xmlns="http://www.w3.org/2000/svg">
<path d="M9.39154 10.0984C9.44487 10.0534 9.49904 10.0067 9.54904 9.95756C6.76487 12.6892 2.22487 11.4142 1.16071 7.56172V7.55589C-0.266793 2.31422 5.75237 -1.66744 9.54737 1.99922C9.62654 2.08339 14.869 7.67422 14.5357 7.31839H14.5507C15.3332 8.12506 16.4649 8.03672 17.1382 7.33172C17.8624 6.57506 17.8882 5.34006 17.1774 4.57089C16.0549 3.27839 13.8507 4.24422 14.0615 6.16006L12.7999 4.87506L11.3365 3.47589C11.6382 2.87672 12.034 2.35256 12.5299 1.89922C12.4765 1.94506 12.4224 1.99256 12.3724 2.04006C15.1674 -0.70161 19.704 0.603391 20.7607 4.43922V4.44422C22.1915 9.68506 16.1657 13.6667 12.374 10.0001C12.2965 9.91673 7.05737 4.29089 7.38904 4.64756L7.38571 4.63506C7.37237 4.63506 7.37237 4.62256 7.37237 4.62256C6.55071 3.77506 5.43654 3.90256 4.78487 4.59672C4.05987 5.35339 4.03487 6.58839 4.74737 7.34589C5.82071 8.60839 8.07237 7.67256 7.86071 5.71839C7.94237 5.80256 10.7682 8.70339 10.5882 8.51922C10.1307 9.43172 9.61904 9.85089 9.39154 10.0984Z" fill="#DF6951"/>
</svg>
