<svg width="21" height="18" viewBox="0 0 21 18" fill="none" xmlns="http://www.w3.org/2000/svg">
<path d="M18.9189 4.9275C19.7322 4.35 20.4164 3.62917 20.9739 2.79917V2.79833C20.2297 3.12417 19.4381 3.34083 18.6114 3.44583C19.4614 2.93833 20.1106 2.14083 20.4156 1.18C19.6231 1.6525 18.7481 1.98583 17.8156 2.1725C17.0631 1.37083 15.9906 0.875 14.8206 0.875C12.5506 0.875 10.7231 2.7175 10.7231 4.97583C10.7231 5.30083 10.7506 5.61333 10.8181 5.91083C7.40974 5.74417 4.39307 4.11083 2.36641 1.62167C2.01307 2.23583 1.80474 2.93833 1.80474 3.69417C1.80474 5.11417 2.53557 6.3725 3.62641 7.10167C2.96724 7.08917 2.32141 6.8975 1.77391 6.59667V6.64167C1.77391 8.63417 3.19474 10.2892 5.05891 10.6708C4.72474 10.7625 4.36141 10.8058 3.98391 10.8058C3.72141 10.8058 3.45641 10.7908 3.20807 10.7358C3.73891 12.3592 5.24724 13.5533 7.03891 13.5925C5.64391 14.6833 3.87224 15.3408 1.95474 15.3408C1.61891 15.3408 1.29641 15.3258 0.973907 15.285C2.79057 16.4558 4.94224 17.125 7.26391 17.125C14.4997 17.125 19.2156 11.0883 18.9189 4.9275Z" fill="#DF6951"/>
</svg>
